<?xml version="1.0" standalone="no"?>
<!DOCTYPE svg PUBLIC "-//W3C//DTD SVG 20010904//EN"
 "http://www.w3.org/TR/2001/REC-SVG-20010904/DTD/svg10.dtd">
<svg version="1.0" xmlns="http://www.w3.org/2000/svg"
 width="500.000000pt" height="500.000000pt" viewBox="0 0 500.000000 500.000000"
 preserveAspectRatio="xMidYMid meet">
<metadata>
Created by potrace 1.14, written by Peter Selinger 2001-2017
</metadata>
<g transform="translate(0.000000,500.000000) scale(0.100000,-0.100000)"
fill="#000000" stroke="none">
<path d="M2329 4996 c-2 -2 -38 -7 -79 -10 -117 -11 -296 -43 -395 -72 -49
-14 -99 -28 -110 -30 -69 -13 -369 -147 -503 -223 -109 -63 -222 -143 -352
-250 -107 -88 -326 -316 -380 -397 -8 -12 -40 -57 -70 -101 -143 -203 -260
-447 -335 -701 -56 -189 -64 -231 -94 -477 -9 -70 -6 -443 3 -500 3 -16 7 -53
11 -81 3 -29 8 -62 10 -75 3 -13 8 -40 11 -59 6 -36 31 -134 63 -250 29 -103
107 -296 165 -405 141 -266 256 -424 451 -621 308 -312 658 -520 1082 -644
160 -47 227 -60 419 -84 130 -16 476 -14 579 3 39 7 84 14 100 15 26 3 110 17
125 21 3 1 19 5 35 10 435 114 705 249 1041 520 58 46 275 264 322 324 85 106
188 252 223 316 130 238 198 397 251 584 28 103 56 220 63 271 12 89 17 128
21 150 3 14 7 111 9 215 3 171 -2 269 -19 390 -3 22 -8 60 -11 85 -24 176
-126 492 -221 683 -40 80 -123 223 -160 277 -13 19 -30 43 -37 53 -19 30 -79
109 -117 157 -45 56 -273 284 -330 331 -313 256 -658 425 -1055 519 -44 11
-100 22 -125 25 -69 8 -133 17 -155 22 -23 5 -431 13 -436 9z"/>
</g>
</svg>
